<svg width="20" height="20" viewBox="0 0 20 20" fill="none" xmlns="http://www.w3.org/2000/svg">
<path opacity="0.8" fill-rule="evenodd" clip-rule="evenodd" d="M10 0C4.486 0 0 4.486 0 10C0 15.5138 4.486 20 10 20C15.514 20 20 15.5138 20 10C20 4.486 15.514 0 10 0ZM10.8064 13.6452H9.1936V18.3476C5.2114 17.9658 2.0342 14.7886 1.6526 10.8064H6.355V9.1936H1.6526C2.0344 5.2114 5.2114 2.0344 9.1936 1.6526V6.3548H10.8064V1.6526C14.7886 2.0342 17.9658 5.2112 18.3474 9.1936H13.6452V10.8064H18.3476C17.9658 14.7886 14.7886 17.9658 10.8064 18.3474V13.6452Z" fill="#431C5D"/>
</svg>
