<svg width="26" height="26" viewBox="0 0 26 26" fill="none" xmlns="http://www.w3.org/2000/svg">
<path fill-rule="evenodd" clip-rule="evenodd" d="M21.4276 0.187426C21.5609 -0.0125741 21.8943 -0.0792408 22.0943 0.120759C22.3609 0.320759 22.3609 0.587426 22.2276 0.787426L3.82761 25.1874C3.76095 25.3208 3.56095 25.3874 3.42761 25.3874C3.29428 25.3874 3.16095 25.3208 3.09428 25.2541C2.89428 25.1208 2.89428 24.7874 3.02761 24.5874L21.4276 0.187426ZM0.0942809 13.5874L5.22761 16.5208C5.29428 16.5874 5.36095 16.5874 5.49428 16.5874C5.69428 16.5874 5.82761 16.5208 5.96095 16.3208C6.09428 16.0541 6.02761 15.7874 5.76095 15.6541L1.36095 13.1208L5.76095 10.5874C6.02761 10.4541 6.09428 10.1208 5.96095 9.92076C5.82761 9.65409 5.49428 9.58743 5.29428 9.72076L0.160948 12.6541L0.0942809 12.7208L0.0276142 12.7874V12.8541V12.9208V12.9874V13.0541V13.1208V13.1874C-0.0390524 13.4541 0.0276142 13.5208 0.0942809 13.5874ZM25.3609 13.1208V13.0541V12.9874V12.9208L25.2943 12.8541L25.2276 12.7874L20.0943 9.85409C19.8276 9.72076 19.5609 9.78743 19.4276 10.0541C19.2943 10.3208 19.3609 10.5874 19.6276 10.7208L24.0276 13.2541L19.6276 15.7874C19.3609 15.9208 19.2943 16.2541 19.4276 16.4541C19.4943 16.5874 19.6943 16.7208 19.8943 16.7208C19.9609 16.7208 20.0943 16.7208 20.1609 16.6541L25.2943 13.7208L25.4943 13.5208V13.4541V13.3874L25.4943 13.3874C25.392 13.234 25.3682 13.1983 25.3626 13.1599C25.3609 13.1482 25.3609 13.1363 25.3609 13.1208Z" fill="url(#paint0_linear)"/>
<defs>
<linearGradient id="paint0_linear" x1="25.4943" y1="0" x2="0" y2="0" gradientUnits="userSpaceOnUse">
<stop stop-color="#7E00E8"/>
<stop offset="0.541721" stop-color="#FF1876"/>
<stop offset="1" stop-color="#BB0CB2"/>
</linearGradient>
</defs>
</svg>
